<svg id="Layer_1" data-name="Layer 1" xmlns="http://www.w3.org/2000/svg" xmlns:xlink="http://www.w3.org/1999/xlink" viewBox="0 0 234.32 227.68"><defs><style>.cls-1{fill:url(#linear-gradient);}.cls-2{fill:url(#linear-gradient-2);}.cls-3{fill:url(#linear-gradient-3);}.cls-4{fill:url(#linear-gradient-4);}.cls-5{fill:url(#linear-gradient-5);}.cls-6{fill:url(#linear-gradient-6);}.cls-7{fill:url(#linear-gradient-7);}.cls-8{fill:url(#linear-gradient-8);}.cls-9{fill:url(#linear-gradient-9);}.cls-10{fill:url(#linear-gradient-10);}.cls-11{fill:url(#linear-gradient-11);}.cls-12{fill:url(#linear-gradient-12);}</style><linearGradient id="linear-gradient" x1="32.7" y1="64.45" x2="114.26" y2="64.45" gradientUnits="userSpaceOnUse"><stop offset="0" stop-color="#ac2025"/><stop offset="0.16" stop-color="#b12326"/><stop offset="0.35" stop-color="#be2c2a"/><stop offset="0.54" stop-color="#d43c2f"/><stop offset="0.71" stop-color="#f04f36"/></linearGradient><linearGradient id="linear-gradient-2" x1="23.53" y1="101.98" x2="101.4" y2="101.98" xlink:href="#linear-gradient"/><linearGradient id="linear-gradient-3" x1="25.75" y1="131.92" x2="92.04" y2="131.92" xlink:href="#linear-gradient"/><linearGradient id="linear-gradient-4" x1="46.61" y1="154.34" x2="87.42" y2="154.34" xlink:href="#linear-gradient"/><linearGradient id="linear-gradient-5" x1="82.1" y1="167.51" x2="123.42" y2="167.51" xlink:href="#linear-gradient"/><linearGradient id="linear-gradient-6" x1="97.79" y1="172.77" x2="166.85" y2="172.77" xlink:href="#linear-gradient"/><linearGradient id="linear-gradient-7" x1="113.28" y1="164.34" x2="199.18" y2="164.34" xlink:href="#linear-gradient"/><linearGradient id="linear-gradient-8" x1="130.73" y1="125.22" x2="210.79" y2="125.22" xlink:href="#linear-gradient"/><linearGradient id="linear-gradient-9" x1="143.52" y1="93.5" x2="206.8" y2="93.5" xlink:href="#linear-gradient"/><linearGradient id="linear-gradient-10" x1="143.95" y1="67.61" x2="182.34" y2="67.61" xlink:href="#linear-gradient"/><linearGradient id="linear-gradient-11" x1="104.6" y1="54.84" x2="145.49" y2="54.84" xlink:href="#linear-gradient"/><linearGradient id="linear-gradient-12" x1="62.16" y1="52.99" x2="128.54" y2="52.99" xlink:href="#linear-gradient"/></defs><path class="cls-1" d="M103.88,83l-.18.55c1.09.34,2.18.68,3.27,1l.19.06.19-.06a28.09,28.09,0,0,1,5.78-1.43l1.13-.15-.79-.82c-1.76-1.83-3.55-3.61-5.37-5.32A160.61,160.61,0,0,0,92.9,64.26,149.07,149.07,0,0,0,64.05,47.8c-2.77-1.19-5.6-2.29-8.44-3.31l-1.55-.27a4.62,4.62,0,0,0-3.36,1.44,96.44,96.44,0,0,0-17,24.25l-.51,1-.5,2.15A4.88,4.88,0,0,0,37.49,78l.65,0h0l.11,0-.15-.56.07.58a147.85,147.85,0,0,1,19.85-1.33c4.65,0,9.38.21,14,.65a159.29,159.29,0,0,1,19.8,3.16c3.94.9,7.91,2,11.81,3.15l.17-.55.17-.56c-3.93-1.19-7.93-2.26-11.89-3.16a158.32,158.32,0,0,0-20-3.19c-4.7-.44-9.47-.66-14.15-.66a150,150,0,0,0-20,1.34h0l-.11,0,.16.55L38,76.82l-.5,0a3.72,3.72,0,0,1-3.63-3.74l.38-1.65.5-1a95.62,95.62,0,0,1,16.79-24,3.49,3.49,0,0,1,2.53-1.09l1.16.2c2.82,1,5.62,2.12,8.37,3.3A147.08,147.08,0,0,1,92.22,65.2a158,158,0,0,1,15.09,12.54c1.81,1.7,3.58,3.46,5.33,5.28l.41-.4-.07-.57a29.44,29.44,0,0,0-6,1.48l.19.54.18-.55c-1.1-.36-2.19-.71-3.28-1Z"/><path class="cls-2" d="M96.26,90.93l.41.41a29.55,29.55,0,0,1,3.75-3.12l1-.69-1.16-.34c-3.07-.89-6.17-1.7-9.25-2.39a149.71,149.71,0,0,0-19.27-3.08q-6.82-.63-13.67-.64a144,144,0,0,0-19.28,1.29c-2.69.37-5.4.81-8.09,1.33A4.58,4.58,0,0,0,27.19,87a99.84,99.84,0,0,0-3.66,26.88c0,1.24,0,2.46.07,3.64l0,1a4.55,4.55,0,0,0,4.52,4.41,4.44,4.44,0,0,0,2.79-1l.07-.06a152.79,152.79,0,0,1,29-18.1,156.76,156.76,0,0,1,18.67-7.5c3.84-1.26,7.79-2.4,11.75-3.38,1.94-.48,3.94-.94,5.93-1.35l.16,0,.13-.12-.41-.41-.12-.56c-2,.41-4,.87-6,1.35-4,1-8,2.14-11.83,3.41a160.81,160.81,0,0,0-18.81,7.55,155.05,155.05,0,0,0-29.24,18.25l-.07.06-2.06.73a3.39,3.39,0,0,1-3.36-3.31l0-1c-.05-1.17-.07-2.38-.07-3.6A99.13,99.13,0,0,1,28.3,87.27a3.42,3.42,0,0,1,2.6-2.43c2.67-.52,5.35-1,8-1.32a141.75,141.75,0,0,1,19.13-1.28c4.52,0,9,.21,13.56.64a147.52,147.52,0,0,1,19.13,3.05c3.05.68,6.13,1.49,9.18,2.37l.16-.55-.33-.48a30.32,30.32,0,0,0-3.89,3.25l.4.41-.12-.56Z"/><path class="cls-3" d="M90.87,97.94l-.14-.56c-3.63.91-7.24,2-10.74,3.11a150.56,150.56,0,0,0-18.18,7.3,148.66,148.66,0,0,0-28.21,17.6c-2.09,1.65-4.15,3.38-6.17,5.15a5.06,5.06,0,0,0-1.68,3.78l.12,1.08a97.7,97.7,0,0,0,11,28.24l.47.8a4.72,4.72,0,0,0,4.07,2.36,4.89,4.89,0,0,0,4.55-3.13l0-.1A161.14,161.14,0,0,1,62.35,132.9,163,163,0,0,1,74.9,116.74c2.72-3.1,5.6-6.12,8.54-9,1.92-1.89,3.92-3.76,6-5.59l.1-.09,0-.12a30.11,30.11,0,0,1,1.8-3.7L92,97.05l-1.31.33.14.56-.51-.29a33.15,33.15,0,0,0-1.86,3.84l.53.22-.38-.43c-2.07,1.84-4.09,3.73-6,5.62-3,2.91-5.86,6-8.59,9.07a165.5,165.5,0,0,0-12.65,16.28A162.41,162.41,0,0,0,44.9,163.16l0,.09a3.72,3.72,0,0,1-3.47,2.39,3.55,3.55,0,0,1-3.08-1.79l-.46-.79A96.87,96.87,0,0,1,27,135.16l-.09-.84a3.93,3.93,0,0,1,1.3-2.91c2-1.76,4-3.48,6.11-5.11a147.59,147.59,0,0,1,28-17.47,154,154,0,0,1,18-7.25c3.48-1.15,7.06-2.18,10.66-3.08l-.14-.56-.51-.29Z"/><path class="cls-4" d="M86.68,113.84l.58,0,.1-2.45.06-1.48-1,1.06c-2.87,2.79-5.66,5.75-8.32,8.77a161,161,0,0,0-12.21,15.72,157.18,157.18,0,0,0-15.93,29.83c-1.06,2.64-2.06,5.36-3,8.11l-.31,1.88A5.85,5.85,0,0,0,48,179.14,94.58,94.58,0,0,0,70,197.47l.86.51,2.74.77a5.76,5.76,0,0,0,5.6-5.84l0-.79h0l0-.13-.57.1.58-.07a162.83,162.83,0,0,1-1.29-20.5c0-4.85.21-9.71.64-14.55a172.27,172.27,0,0,1,3.06-20.49c.86-4.07,1.88-8.18,3-12.21.79-2.73,1.66-5.52,2.6-8.29l.12-.31,0-.11,0-1.73-.58,0,.58,0-.58,0h-.57l0,1.51-.08.23c-1,2.8-1.83,5.6-2.62,8.35-1.16,4.06-2.19,8.19-3,12.29a172.58,172.58,0,0,0-3.08,20.63q-.65,7.32-.65,14.65A164.94,164.94,0,0,0,78,192.15h0l0,.13.57-.1-.57.07,0,.65a4.62,4.62,0,0,1-4.45,4.68l-2.15-.6-.86-.51a93.31,93.31,0,0,1-21.66-18.1,4.69,4.69,0,0,1-1.14-3.08l.25-1.51c.92-2.73,1.92-5.43,3-8A155.16,155.16,0,0,1,66.8,136.13a158.39,158.39,0,0,1,12.12-15.61c2.63-3,5.41-5.93,8.26-8.71h0l-.41-.41-.57,0-.1,2.45h0v0Z"/><path class="cls-5" d="M103.51,169.71l.53-.23a171.41,171.41,0,0,1-7.26-19.33c-1.22-4-2.32-8.06-3.26-12.14-.57-2.44-1.09-4.95-1.57-7.49l0-.1-.05-.09a31.23,31.23,0,0,1-2.25-4.43L89,124.36l-.45,1.6c-1.08,3.8-2,7.64-2.85,11.47a168.88,168.88,0,0,0-3,19.94q-.61,7-.61,14a160.69,160.69,0,0,0,1.25,20c.42,3.31,1,6.65,1.58,10a6.34,6.34,0,0,0,4.18,4.85,90.91,90.91,0,0,0,26.12,4.39l1.93,0h.12a6.3,6.3,0,0,0,6.14-6.47,6.68,6.68,0,0,0-1.33-4l-.54-.71a160.78,160.78,0,0,1-17.51-30l-.53.23L103,170a162.27,162.27,0,0,0,17.64,30.23l.54.72a5.5,5.5,0,0,1,1.11,3.29,5.15,5.15,0,0,1-5,5.31h-.1l-1.92,0a89.58,89.58,0,0,1-25.78-4.33,5.18,5.18,0,0,1-3.4-4c-.63-3.28-1.15-6.6-1.57-9.89a158.3,158.3,0,0,1-1.25-19.86c0-4.65.21-9.31.62-13.95a166.8,166.8,0,0,1,2.95-19.8c.81-3.8,1.76-7.62,2.83-11.39l-.56-.16-.53.22a33,33,0,0,0,2.33,4.59l.49-.3-.56.11c.47,2.55,1,5.08,1.57,7.53,1,4.11,2.06,8.22,3.29,12.22A172.46,172.46,0,0,0,103,170Z"/><path class="cls-6" d="M161.68,184.53l.23-.53a152.11,152.11,0,0,1-29.66-16.93,161,161,0,0,1-15.63-13c-3-2.81-5.91-5.77-8.7-8.83-.91-1-1.81-2-2.69-3l-.08-.1-.12,0a29.56,29.56,0,0,1-5.92-3.63l-1.32-1,.4,1.63c.8,3.27,1.69,6.53,2.67,9.72a164.22,164.22,0,0,0,7.06,18.8,156.67,156.67,0,0,0,17,29.17c2.19,3,4.5,5.85,6.91,8.65a7.69,7.69,0,0,0,5.83,2.69l1.91-.24A90.69,90.69,0,0,0,161.67,199l1.29-.73a7.8,7.8,0,0,0,3.89-6.83,8,8,0,0,0-4.81-7.41l-.11-.05-.25.52-.24.53.13.06a6.82,6.82,0,0,1,4.12,6.35,6.61,6.61,0,0,1-3.3,5.82l-1.29.74a89.82,89.82,0,0,1-21.81,8.71l-1.62.2a6.53,6.53,0,0,1-5-2.29c-2.38-2.77-4.68-5.65-6.85-8.57a156.75,156.75,0,0,1-16.89-29,165,165,0,0,1-7-18.67c-1-3.17-1.86-6.4-2.65-9.66l-.56.14-.36.46a30.54,30.54,0,0,0,6.16,3.77l.24-.52-.43.38c.89,1,1.79,2,2.7,3,2.82,3.08,5.77,6.06,8.76,8.89A163.48,163.48,0,0,0,131.57,168a153.88,153.88,0,0,0,29.89,17.06Z"/><path class="cls-7" d="M189.45,150.3l-.08-.57a148.15,148.15,0,0,1-19.9,1.33c-4.66,0-9.33-.22-14-.65a157.37,157.37,0,0,1-19.8-3.16c-3.92-.88-7.9-1.95-11.8-3.15h0l-.15-.05-.16,0a29.1,29.1,0,0,1-6.36.71v.58l0-.57-2.46-.11-1.45-.07,1,1c1.7,1.74,3.44,3.46,5.2,5.12a158.12,158.12,0,0,0,15.2,12.64,149.59,149.59,0,0,0,28.85,16.46c3.7,1.59,7.51,3,11.37,4.33l2.65.43a8.38,8.38,0,0,0,6.05-2.6,96.27,96.27,0,0,0,13.46-17.72l.94-1.63a8.87,8.87,0,0,0,1.17-4.36,8.64,8.64,0,0,0-8.49-8.7l-1.17.08-.15,0,.08.57.07.57.15,0,1-.07a7.51,7.51,0,0,1,7.34,7.55,7.79,7.79,0,0,1-1,3.79l-.94,1.62a95.43,95.43,0,0,1-13.29,17.5,7.24,7.24,0,0,1-5.22,2.24l-2.29-.37c-3.82-1.28-7.6-2.72-11.28-4.29a148.87,148.87,0,0,1-28.62-16.33,158.56,158.56,0,0,1-15.09-12.55q-2.62-2.48-5.16-5.09l-.41.4,0,.58,2.46.11h0a30.09,30.09,0,0,0,6.61-.74l-.12-.56-.19.54.06,0c4,1.22,8,2.29,11.9,3.18a161.47,161.47,0,0,0,20,3.18c4.68.44,9.39.65,14.08.65a148.62,148.62,0,0,0,20.05-1.34Z"/><path class="cls-8" d="M210.2,112.64h.58a8.77,8.77,0,0,0-8.72-8.8,8.57,8.57,0,0,0-5.36,1.91l-.13.11a153.81,153.81,0,0,1-29,18.09,157.73,157.73,0,0,1-18.69,7.5c-3,1-6,1.88-9,2.69l-.17.05-.12.14a30.27,30.27,0,0,1-7.61,6.39l-1.2.71,1.35.35c1.51.39,3,.77,4.51,1.1A151.13,151.13,0,0,0,155.88,146c4.53.43,9.09.64,13.63.64a144.2,144.2,0,0,0,19.31-1.29q6.41-.87,12.76-2.32a9,9,0,0,0,6.69-6.76,99.57,99.57,0,0,0,2.51-21.33v-2.26h-1.16v2.24A98.68,98.68,0,0,1,207.14,136a7.77,7.77,0,0,1-5.82,5.88c-4.19.95-8.43,1.73-12.66,2.3a143.36,143.36,0,0,1-19.15,1.28c-4.5,0-9-.21-13.53-.63a151.13,151.13,0,0,1-19.14-3.06c-1.47-.32-3-.7-4.47-1.09l-.14.56.29.5a31.65,31.65,0,0,0,7.9-6.64l-.44-.38.15.56c3.08-.82,6.13-1.73,9.11-2.71A157.59,157.59,0,0,0,168.06,125a154.5,154.5,0,0,0,29.24-18.24l.13-.1a7.39,7.39,0,0,1,4.63-1.65,7.59,7.59,0,0,1,7.56,7.65Z"/><path class="cls-9" d="M197.29,64.89l.5-.29-1.17-2a8.2,8.2,0,0,0-7.1-4.1A8.43,8.43,0,0,0,181.67,64l0,.12a161.46,161.46,0,0,1-16.38,30.71A166.06,166.06,0,0,1,152.69,111c-1.84,2.08-3.74,4.12-5.68,6.12l-.13.14,0,.2a31.45,31.45,0,0,1-2.77,9.89l-.56,1.18,1.25-.38c.95-.29,1.89-.59,2.83-.9a154.32,154.32,0,0,0,18.18-7.31A149.18,149.18,0,0,0,194,102.29c3.43-2.72,6.79-5.64,10-8.7a9,9,0,0,0,2.78-6.49l-.4-2.62a97.64,97.64,0,0,0-8.61-19.88l-.5.29-.5.29a97,97,0,0,1,8.51,19.64l.34,2.28a7.79,7.79,0,0,1-2.42,5.65c-3.2,3-6.53,5.93-9.94,8.64a148.69,148.69,0,0,1-28,17.46,151.26,151.26,0,0,1-18,7.25c-.94.31-1.87.6-2.81.89l.17.55.52.25A32.32,32.32,0,0,0,148,117.53l-.57-.06.41.4c1.95-2,3.87-4.06,5.72-6.16a165.52,165.52,0,0,0,12.63-16.27,161.93,161.93,0,0,0,16.5-30.91l.05-.13a7.3,7.3,0,0,1,6.78-4.73,7.07,7.07,0,0,1,6.11,3.54l1.16,2Z"/><path class="cls-10" d="M161,29l.27-.51-1.87-1a7.36,7.36,0,0,0-3.45-.87,7.78,7.78,0,0,0-7.6,7.89l.07,1.08,0,.14.57-.09-.57.08a165.28,165.28,0,0,1,1.28,20.55q0,7.24-.63,14.5a172,172,0,0,1-3.06,20.49q-.91,4.33-2.07,8.69l-.05.2.09.2a31.59,31.59,0,0,1,2.41,7.34l.07.35,2,.56.34.1.24-.27A159.79,159.79,0,0,0,161.75,92.2a156.23,156.23,0,0,0,15.92-29.82c1.6-4,3-8,4.31-12.15l.36-2.43a8.09,8.09,0,0,0-2.54-5.92,94,94,0,0,0-18.48-13.43L161,29l-.28.51A93.12,93.12,0,0,1,179,42.73a6.91,6.91,0,0,1,2.18,5.07l-.32,2.09C179.61,54,178.18,58,176.6,62a155.9,155.9,0,0,1-15.8,29.6,161.49,161.49,0,0,1-12.52,16.06l.43.38.16-.55-1.7-.47-.15.56.57-.12a32.52,32.52,0,0,0-2.51-7.61l-.52.25.56.15c.77-2.92,1.47-5.85,2.08-8.75a172,172,0,0,0,3.08-20.63c.43-4.86.64-9.74.64-14.6a163.89,163.89,0,0,0-1.3-20.7v0l0-.12-.06-.92A6.64,6.64,0,0,1,156,27.73a6.18,6.18,0,0,1,2.91.73l1.86,1Z"/><path class="cls-11" d="M124.07,58l-.52.24a173.89,173.89,0,0,1,7.25,19.32c1,3.38,2,6.84,2.84,10.32l.05.21.18.13a30.5,30.5,0,0,1,4.81,4.2l.25.26.34-.1,1.95-.59.32-.1.07-.33a166.2,166.2,0,0,0,3.26-21.21c.41-4.71.62-9.44.62-14.14a159,159,0,0,0-1.25-19.92c-.5-4-1.16-7.95-2-11.88a6.51,6.51,0,0,0-4.84-5.08A91.72,91.72,0,0,0,117.17,17c-1.56,0-3.14,0-4.72.12l-1.78.11A6.63,6.63,0,0,0,104.6,24,6.86,6.86,0,0,0,106,28.1l.08.1a161.52,161.52,0,0,1,17.5,30l.52-.24.53-.24A162.88,162.88,0,0,0,107,27.5l-.08-.1A5.68,5.68,0,0,1,105.76,24a5.46,5.46,0,0,1,5-5.57l1.76-.11c1.56-.08,3.12-.12,4.66-.12a90.14,90.14,0,0,1,20,2.25,5.35,5.35,0,0,1,4,4.18c.8,3.91,1.46,7.85,2,11.79a156.79,156.79,0,0,1,1.24,19.78c0,4.67-.2,9.36-.61,14a165.52,165.52,0,0,1-3.24,21.07l.57.13-.17-.55-1.94.58.17.56.42-.4a31.46,31.46,0,0,0-5-4.36l-.33.48.56-.14c-.86-3.51-1.81-7-2.86-10.39a169.69,169.69,0,0,0-7.3-19.45Z"/><path class="cls-12" d="M111.37,73.17l-.39.42c3,2.81,5.9,5.78,8.7,8.83l.43.49.15.16.21,0a29,29,0,0,1,7,1.71l1.07.41-.3-1.1q-.72-2.64-1.51-5.22a166.12,166.12,0,0,0-7.06-18.8,155.85,155.85,0,0,0-17-29.17c-2.07-2.81-4.27-5.57-6.56-8.24A5.34,5.34,0,0,0,92,20.78L90.51,21A91.67,91.67,0,0,0,65.75,32.92l-1.22.84a5.57,5.57,0,0,0-2.37,4.59,5.72,5.72,0,0,0,3.43,5.29h0l.1,0,.2-.54-.23.53A152.46,152.46,0,0,1,95.34,60.61a162.57,162.57,0,0,1,15.64,13l.39-.42.4-.42A165,165,0,0,0,96,59.67,153.88,153.88,0,0,0,66.13,42.61h0l-.09,0-.2.54.23-.53a4.56,4.56,0,0,1-2.73-4.23,4.36,4.36,0,0,1,1.87-3.64l1.22-.84A90.19,90.19,0,0,1,90.85,22.11L92,21.93a4.21,4.21,0,0,1,3.19,1.5c2.28,2.65,4.46,5.39,6.51,8.18a154.71,154.71,0,0,1,16.9,29,163.62,163.62,0,0,1,7,18.66c.53,1.71,1,3.44,1.5,5.18l.56-.15.2-.54a30.44,30.44,0,0,0-7.27-1.78l-.07.58.43-.39-.44-.48c-2.82-3.09-5.76-6.07-8.76-8.9Z"/></svg>